<?xml version="1.0" encoding="utf-8"?>
<svg version="1.1" xmlns:xlink="http://www.w3.org/1999/xlink" width="110px" height="184px" xmlns="http://www.w3.org/2000/svg">
  <g transform="matrix(1 0 0 1 -252 -431 )">
    <path d="M 252.5 600.075  C 252.5 600.075  252.5 436  252.5 436  C 252.5 433.514718625761  254.514718625761 431.5  257 431.5  C 257 431.5  357 431.5  357 431.5  C 359.485281374239 431.5  361.5 433.514718625761  361.5 436  C 361.5 436  361.5 600.075  361.5 600.075  C 361.5 602.560281374238  359.485281374239 604.575  357 604.575  C 357 604.575  316.08682526701 604.575  316.08682526701 604.575  C 316.08682526701 604.575  306.996039532762 613.736419511896  306.996039532762 613.736419511896  C 306.996039532762 613.736419511896  296.482348205327 604.575  296.482348205327 604.575  C 296.482348205327 604.575  257 604.575  257 604.575  C 254.514718625761 604.575  252.5 602.560281374238  252.5 600.075  Z " fill-rule="nonzero" fill="#f2f2f2" stroke="none" />
    <path d="M 252 600.075  C 252 600.075  252 436  252 436  C 252 433.238576250846  254.238576250846 431  257 431  C 257 431  357 431  357 431  C 359.761423749154 431  362 433.238576250846  362 436  C 362 436  362 600.075  362 600.075  C 362 602.836423749154  359.761423749154 605.075  357 605.075  C 357 605.075  316.295066413662 605.075  316.295066413662 605.075  C 316.295066413662 605.075  307.020872865275 614.421252371917  307.020872865275 614.421252371917  C 307.020872865275 614.421252371917  296.295066413662 605.075  296.295066413662 605.075  C 296.295066413662 605.075  257 605.075  257 605.075  C 254.238576250846 605.075  252 602.836423749154  252 600.075  Z M 253 600.075  C 253 602.284138999323  254.790861000677 604.075  257 604.075  C 257 604.075  296.669629996994 604.075  296.669629996994 604.075  C 296.669629996994 604.075  306.971206200249 613.051586651876  306.971206200249 613.051586651876  C 306.971206200249 613.051586651876  315.878584120357 604.075  315.878584120357 604.075  C 315.878584120357 604.075  357 604.075  357 604.075  C 359.209138999323 604.075  361 602.284138999323  361 600.075  C 361 600.075  361 436  361 436  C 361 433.790861000677  359.209138999323 432  357 432  C 357 432  257 432  257 432  C 254.790861000677 432  253 433.790861000677  253 436  C 253 436  253 600.075  253 600.075  Z " fill-rule="nonzero" fill="#d7d7d7" stroke="none" />
  </g>
</svg>