<?xml version="1.0" encoding="utf-8"?>
<svg version="1.1" xmlns:xlink="http://www.w3.org/1999/xlink" width="12px" height="23px" xmlns="http://www.w3.org/2000/svg">
  <g transform="matrix(1 0 0 1 -23 -31 )">
    <path d="M 11.7938144329897 1.38276553106212  C 11.9312714776632 1.53640614562458  12 1.71309285237141  12 1.91282565130261  C 12 2.1125584502338  11.9312714776632 2.28924515698063  11.7938144329897 2.44288577154309  L 3.69072164948454 11.5  L 11.7938144329897 20.5571142284569  C 11.9312714776632 20.7107548430194  12 20.8874415497662  12 21.0871743486974  C 12 21.2869071476286  11.9312714776632 21.4635938543754  11.7938144329897 21.6172344689379  L 10.7628865979381 22.7695390781563  C 10.6254295532646 22.9231796927188  10.46735395189 23  10.2886597938144 23  C 10.1099656357388 23  9.95189003436426 22.9231796927188  9.81443298969072 22.7695390781563  L 0.206185567010309 12.0300601202405  C 0.0687285223367698 11.876419505678  0 11.6997327989312  0 11.5  C 0 11.3002672010688  0.0687285223367698 11.123580494322  0.206185567010309 10.9699398797595  L 9.81443298969072 0.230460921843688  C 9.95189003436426 0.0768203072812284  10.1099656357388 0  10.2886597938144 0  C 10.46735395189 0  10.6254295532646 0.0768203072812284  10.7628865979381 0.230460921843688  L 11.7938144329897 1.38276553106212  Z " fill-rule="nonzero" fill="#7f7f7f" stroke="none" transform="matrix(1 0 0 1 23 31 )" />
  </g>
</svg>