<?xml version="1.0" encoding="utf-8"?>
<svg version="1.1" xmlns:xlink="http://www.w3.org/1999/xlink" width="90px" height="250px" xmlns="http://www.w3.org/2000/svg">
  <g transform="matrix(1 0 0 1 -151 -2 )">
    <path d="M 151.513196480938 238.714035087719  C 151.513196480938 238.714035087719  151.513196480938 7.32456140350877  151.513196480938 7.32456140350877  C 151.513196480938 4.5631376543548  153.751772731784 2.32456140350877  156.513196480938 2.32456140350877  C 156.513196480938 2.32456140350877  235.486803519062 2.32456140350877  235.486803519062 2.32456140350877  C 238.248227268215 2.32456140350877  240.486803519062 4.5631376543548  240.486803519062 7.32456140350877  C 240.486803519062 7.32456140350877  240.486803519062 238.714035087719  240.486803519062 238.714035087719  C 240.486803519062 241.475458836873  238.248227268215 243.714035087719  235.486803519062 243.714035087719  C 235.486803519062 243.714035087719  180.378041658556 243.714035087719  180.378041658556 243.714035087719  C 180.378041658556 243.714035087719  170.020408163265 251.612244897959  170.020408163265 251.612244897959  C 170.020408163265 251.612244897959  160.378041658556 243.714035087719  160.378041658556 243.714035087719  C 160.378041658556 243.714035087719  156.513196480938 243.714035087719  156.513196480938 243.714035087719  C 153.751772731784 243.714035087719  151.513196480938 241.475458836873  151.513196480938 238.714035087719  Z " fill-rule="nonzero" fill="#ffffff" stroke="none" />
  </g>
</svg>