<?xml version="1.0" encoding="utf-8"?>
<svg version="1.1" xmlns:xlink="http://www.w3.org/1999/xlink" width="110px" height="105px" xmlns="http://www.w3.org/2000/svg">
  <g transform="matrix(1 0 0 1 -45 -503 )">
    <path d="M 45.5 592.605978260869  C 45.5 592.605978260869  45.5 508  45.5 508  C 45.5 505.514718625761  47.5147186257614 503.5  50 503.5  C 50 503.5  150 503.5  150 503.5  C 152.485281374239 503.5  154.5 505.514718625761  154.5 508  C 154.5 508  154.5 592.605978260869  154.5 592.605978260869  C 154.5 595.091259635108  152.485281374239 597.105978260869  150 597.105978260869  C 150 597.105978260869  108.239639309182 597.105978260869  108.239639309182 597.105978260869  C 108.239639309182 597.105978260869  99.2007136388346 606.704831832  99.2007136388346 606.704831832  C 99.2007136388346 606.704831832  88.6489970613166 597.105978260869  88.6489970613166 597.105978260869  C 88.6489970613166 597.105978260869  50 597.105978260869  50 597.105978260869  C 47.5147186257614 597.105978260869  45.5 595.091259635108  45.5 592.605978260869  Z " fill-rule="nonzero" fill="#f2f2f2" stroke="none" />
    <path d="M 45 592.605978260869  C 45 592.605978260869  45 508  45 508  C 45 505.238576250846  47.238576250846 503  50 503  C 50 503  150 503  150 503  C 152.761423749154 503  155 505.238576250846  155 508  C 155 508  155 592.605978260869  155 592.605978260869  C 155 595.367402010023  152.761423749154 597.605978260869  150 597.605978260869  C 150 597.605978260869  108.455598455598 597.605978260869  108.455598455598 597.605978260869  C 108.455598455598 597.605978260869  99.2277992277992 607.405405405405  99.2277992277992 607.405405405405  C 99.2277992277992 607.405405405405  88.4555984555985 597.605978260869  88.4555984555985 597.605978260869  C 88.4555984555985 597.605978260869  50 597.605978260869  50 597.605978260869  C 47.238576250846 597.605978260869  45 595.367402010023  45 592.605978260869  Z M 46 592.605978260869  C 46 594.815117260193  47.7908610006768 596.605978260869  50 596.605978260869  C 50 596.605978260869  88.8423956670349 596.605978260869  88.8423956670349 596.605978260869  C 88.8423956670349 596.605978260869  99.17362804987 606.004258258596  99.17362804987 606.004258258596  C 99.17362804987 606.004258258596  108.023680162765 596.605978260869  108.023680162765 596.605978260869  C 108.023680162765 596.605978260869  150 596.605978260869  150 596.605978260869  C 152.209138999323 596.605978260869  154 594.815117260193  154 592.605978260869  C 154 592.605978260869  154 508  154 508  C 154 505.790861000677  152.209138999323 504  150 504  C 150 504  50 504  50 504  C 47.7908610006768 504  46 505.790861000677  46 508  C 46 508  46 592.605978260869  46 592.605978260869  Z " fill-rule="nonzero" fill="#d7d7d7" stroke="none" />
  </g>
</svg>