<?xml version="1.0" encoding="utf-8"?>
<svg version="1.1" xmlns:xlink="http://www.w3.org/1999/xlink" width="15px" height="15px" viewBox="19 261  15 15" xmlns="http://www.w3.org/2000/svg">
  <path d="M 26.5 261  C 30.7 261  34 264.3  34 268.5  C 34 272.7  30.7 276  26.5 276  C 22.3 276  19 272.7  19 268.5  C 19 264.3  22.3 261  26.5 261  Z " fill-rule="nonzero" fill="#ffffff" stroke="none" />
  <path d="M 26.5 261.5  C 30.42 261.5  33.5 264.58  33.5 268.5  C 33.5 272.42  30.42 275.5  26.5 275.5  C 22.58 275.5  19.5 272.42  19.5 268.5  C 19.5 264.58  22.58 261.5  26.5 261.5  Z " stroke-width="1" stroke="#797979" fill="none" />
  <path d="M 26.5 272.25  C 24.4 272.25  22.75 270.6  22.75 268.5  C 22.75 266.4  24.4 264.75  26.5 264.75  C 28.6 264.75  30.25 266.4  30.25 268.5  C 30.25 270.6  28.6 272.25  26.5 272.25  " fill-rule="nonzero" fill="#797979" stroke="none" />
</svg>