<?xml version="1.0" encoding="utf-8"?>
<svg version="1.1" xmlns:xlink="http://www.w3.org/1999/xlink" width="14px" height="13px" xmlns="http://www.w3.org/2000/svg">
  <g transform="matrix(1 0 0 1 -13 -863 )">
    <path d="M 5.98645833333333 7.83248154457694  C 6.35104166666667 7.4633730834753  6.53333333333333 7.01798220707931  6.53333333333333 6.49630891538898  C 6.53333333333333 5.97463562369866  6.35104166666667 5.52924474730267  5.98645833333333 5.16013628620102  C 5.621875 4.79102782509938  5.18194444444444 4.60647359454855  4.66666666666667 4.60647359454855  C 4.15138888888889 4.60647359454855  3.71145833333333 4.79102782509938  3.346875 5.16013628620102  C 2.98229166666667 5.52924474730267  2.8 5.97463562369866  2.8 6.49630891538898  C 2.8 7.01798220707931  2.98229166666667 7.4633730834753  3.346875 7.83248154457694  C 3.71145833333333 8.20159000567859  4.15138888888889 8.38614423622942  4.66666666666667 8.38614423622942  C 5.18194444444444 8.38614423622942  5.621875 8.20159000567859  5.98645833333333 7.83248154457694  Z M 11.8598958333333 10.9440658716638  C 12.0421875 10.759511641113  12.1333333333333 10.536816202915  12.1333333333333 10.2759795570698  C 12.1333333333333 10.0200643573727  12.0409722222222 9.79859928071172  11.85625 9.61158432708688  C 11.6715277777778 9.42456937346205  11.4527777777778 9.33106189664963  11.2 9.33106189664963  C 10.9472222222222 9.33106189664963  10.7284722222222 9.42456937346205  10.54375 9.61158432708688  C 10.3590277777778 9.79859928071172  10.2666666666667 10.0200643573727  10.2666666666667 10.2759795570698  C 10.2666666666667 10.536816202915  10.3578125 10.759511641113  10.5401041666667 10.9440658716638  C 10.7223958333333 11.1286201022147  10.9423611111111 11.2208972174901  11.2 11.2208972174901  C 11.4576388888889 11.2208972174901  11.6776041666667 11.1286201022147  11.8598958333333 10.9440658716638  Z M 11.8598958333333 3.3847245883021  C 12.0421875 3.20017035775128  12.1333333333333 2.97747491955328  12.1333333333333 2.71663827370812  C 12.1333333333333 2.46072307401098  12.0409722222222 2.23925799734999  11.85625 2.05224304372516  C 11.6715277777778 1.86522809010032  11.4527777777778 1.7717206132879  11.2 1.7717206132879  C 10.9472222222222 1.7717206132879  10.7284722222222 1.86522809010032  10.54375 2.05224304372516  C 10.3590277777778 2.23925799734999  10.2666666666667 2.46072307401098  10.2666666666667 2.71663827370812  C 10.2666666666667 2.97747491955328  10.3578125 3.20017035775128  10.5401041666667 3.3847245883021  C 10.7223958333333 3.56927881885293  10.9423611111111 3.66155593412834  11.2 3.66155593412834  C 11.4576388888889 3.66155593412834  11.6776041666667 3.56927881885293  11.8598958333333 3.3847245883021  Z M 9.28229166666667 5.68057921635434  C 9.31631944444444 5.72241150861253  9.33333333333333 5.77039560855574  9.33333333333333 5.82453151618399  L 9.33333333333333 7.19023282226008  C 9.33333333333333 7.2394472837403  9.31631944444444 7.28743138368351  9.28229166666667 7.33418512208972  C 9.24826388888889 7.38093886049593  9.209375 7.40677645277304  9.165625 7.41169789892107  L 8.03541666666667 7.58886996024986  C 7.98194444444445 7.76112057543063  7.90416666666667 7.94813552905546  7.80208333333333 8.14991482112436  C 7.96736111111111 8.38614423622942  8.18611111111111 8.66912738974068  8.45833333333333 8.99886428165815  C 8.49236111111111 9.05300018928639  8.509375 9.10221465076661  8.509375 9.14650766609881  C 8.509375 9.20556501987507  8.49236111111111 9.25231875828128  8.45833333333333 9.28676888131743  C 8.34652777777778 9.43441226575809  8.14600694444445 9.65464698088207  7.85677083333333 9.94747302668938  C 7.56753472222222 10.2402990724967  7.37673611111111 10.3867120954003  7.284375 10.3867120954003  C 7.23090277777778 10.3867120954003  7.17986111111111 10.3694870338823  7.13125 10.3350369108461  L 6.29270833333333 9.67064168086315  C 6.11284722222222 9.76414915767556  5.92569444444444 9.8404315729699  5.73125 9.89948892674617  C 5.67777777777778 10.4310051107325  5.621875 10.8124171872042  5.56354166666667 11.0437251561613  C 5.52951388888889 11.1618398637138  5.45659722222222 11.2208972174901  5.34479166666667 11.2208972174901  L 3.98854166666667 11.2208972174901  C 3.93506944444444 11.2208972174901  3.88645833333333 11.202441794435  3.84270833333333 11.1655309483248  C 3.79895833333333 11.1286201022147  3.77465277777778 11.0855574484195  3.76979166666667 11.0363429869392  L 3.60208333333333 9.9068710959682  C 3.43680555555556 9.85765663448798  3.25451388888889 9.78137421919364  3.05520833333333 9.67802385008518  L 2.19479166666667 10.3350369108461  C 2.16076388888889 10.3694870338823  2.11215277777778 10.3867120954003  2.04895833333333 10.3867120954003  C 1.99548611111111 10.3867120954003  1.94444444444444 10.3670263108083  1.89583333333333 10.3276547416241  C 1.19583333333333 9.67310240393716  0.845833333333333 9.2793867120954  0.845833333333333 9.14650766609881  C 0.845833333333333 9.10221465076661  0.862847222222222 9.0554609123604  0.896875 9.00624645088018  C 0.945486111111111 8.93734620480787  1.04513888888889 8.80692788188529  1.19583333333333 8.61499148211244  C 1.34652777777778 8.42305508233958  1.46076388888889 8.27295097482491  1.53854166666667 8.16467915956843  C 1.42673611111111 7.94813552905546  1.34166666666667 7.74635623698656  1.28333333333333 7.55934128336173  L 0.175 7.38216922203294  C 0.126388888888889 7.37724777588491  0.0850694444444445 7.35387090668181  0.0510416666666667 7.31203861442362  C 0.0170138888888889 7.27020632216544  0 7.22222222222222  0 7.16808631459398  L 0 5.80238500851789  C 0 5.75317054703767  0.0170138888888889 5.70518644709445  0.0510416666666667 5.65843270868824  C 0.0850694444444445 5.61167897028204  0.123958333333333 5.58584137800492  0.167708333333333 5.5809199318569  L 1.29791666666667 5.40374787052811  C 1.35138888888889 5.23149725534734  1.42916666666667 5.04448230172251  1.53125 4.84270300965361  C 1.36597222222222 4.60647359454855  1.14722222222222 4.32349044103729  0.875 3.99375354911982  C 0.840972222222222 3.93961764149158  0.823958333333333 3.89040318001136  0.823958333333333 3.84611016467916  C 0.823958333333333 3.7870528109029  0.840972222222222 3.73783834942268  0.875 3.6984667802385  C 0.981944444444445 3.55082339579784  1.18125 3.33181904221086  1.47291666666667 3.04145371947757  C 1.76458333333333 2.75108839674427  1.95659722222222 2.60590573537763  2.04895833333333 2.60590573537763  C 2.10243055555556 2.60590573537763  2.15347222222222 2.6231307968957  2.20208333333333 2.65758091993186  L 3.040625 3.32197614991482  C 3.20590277777778 3.23339011925043  3.39305555555556 3.15464698088207  3.60208333333333 3.08574673480977  C 3.65555555555556 2.5542305508234  3.71145833333333 2.1752791974257  3.76979166666667 1.9488926746167  C 3.80381944444445 1.83077796706417  3.87673611111111 1.7717206132879  3.98854166666667 1.7717206132879  L 5.34479166666667 1.7717206132879  C 5.39826388888889 1.7717206132879  5.446875 1.79017603634299  5.490625 1.82708688245315  C 5.534375 1.86399772856332  5.55868055555556 1.90706038235851  5.56354166666667 1.95627484383873  L 5.73125 3.08574673480977  C 5.89652777777778 3.13496119628999  6.07881944444445 3.21124361158433  6.278125 3.31459398069279  L 7.13854166666667 2.65758091993186  C 7.17743055555556 2.6231307968957  7.22604166666667 2.60590573537763  7.284375 2.60590573537763  C 7.33784722222222 2.60590573537763  7.38888888888889 2.62559151996971  7.4375 2.66496308915389  C 8.1375 3.31951542684081  8.4875 3.71323111868257  8.4875 3.84611016467916  C 8.4875 3.88548173386333  8.47048611111111 3.93223547226954  8.43645833333333 3.98637137989779  C 8.378125 4.06511451826614  8.27604166666667 4.19799356426273  8.13020833333333 4.38500851788756  C 7.984375 4.5720234715124  7.875 4.71966685595306  7.80208333333333 4.82793867120954  C 7.91388888888889 5.06416808631459  7.99652777777778 5.26594737838349  8.05 5.43327654741624  L 9.15833333333333 5.603066439523  C 9.20694444444444 5.61290933181904  9.24826388888889 5.63874692409616  9.28229166666667 5.68057921635434  Z M 12.9135416666667 9.53038046564452  C 13.6378472222222 9.60420215786485  14 9.68048457315919  14 9.75922771152754  L 14 10.7927314026122  C 14 10.8714745409805  13.6378472222222 10.9477569562748  12.9135416666667 11.0215786484952  C 12.8552083333333 11.1544576944918  12.7822916666667 11.2824152943403  12.6947916666667 11.4054514480409  C 12.9427083333333 11.9615748627674  13.0666666666667 12.3011546469809  13.0666666666667 12.4241908006814  C 13.0666666666667 12.4438765852735  13.0569444444444 12.4611016467916  13.0375 12.4758659852357  C 12.4444444444444 12.8252886617452  12.1430555555556 13  12.1333333333333 13  C 12.0944444444444 13  11.9826388888889 12.8843460155215  11.7979166666667 12.6530380465645  C 11.6131944444444 12.4217300776074  11.4868055555556 12.2544009085747  11.41875 12.1510505394662  C 11.3215277777778 12.1608934317623  11.2486111111111 12.1658148779103  11.2 12.1658148779103  C 11.1513888888889 12.1658148779103  11.0784722222222 12.1608934317623  10.98125 12.1510505394662  C 10.9131944444444 12.2544009085747  10.7868055555556 12.4217300776074  10.6020833333333 12.6530380465645  C 10.4173611111111 12.8843460155215  10.3055555555556 13  10.2666666666667 13  C 10.2569444444444 13  9.95555555555556 12.8252886617452  9.3625 12.4758659852357  C 9.34305555555556 12.4611016467916  9.33333333333333 12.4438765852735  9.33333333333333 12.4241908006814  C 9.33333333333333 12.3011546469809  9.45729166666667 11.9615748627674  9.70520833333333 11.4054514480409  C 9.61770833333333 11.2824152943403  9.54479166666667 11.1544576944918  9.48645833333333 11.0215786484952  C 8.76215277777778 10.9477569562748  8.4 10.8714745409805  8.4 10.7927314026122  L 8.4 9.75922771152754  C 8.4 9.68048457315919  8.76215277777778 9.60420215786485  9.48645833333333 9.53038046564452  C 9.54965277777778 9.38765852735188  9.62256944444445 9.25970092750331  9.70520833333333 9.14650766609881  C 9.45729166666667 8.59038425137233  9.33333333333333 8.25080446715881  9.33333333333333 8.12776831345826  C 9.33333333333333 8.10808252886617  9.34305555555556 8.0908574673481  9.3625 8.07609312890403  C 9.38194444444444 8.06625023660799  9.46701388888889 8.01703577512777  9.61770833333333 7.92844974446337  C 9.76840277777778 7.83986371379898  9.91180555555556 7.7561991292826  10.0479166666667 7.67745599091425  C 10.1840277777778 7.5987128525459  10.2569444444444 7.55934128336173  10.2666666666667 7.55934128336173  C 10.3055555555556 7.55934128336173  10.4173611111111 7.67376490630324  10.6020833333333 7.90261215218626  C 10.7868055555556 8.13145939806928  10.9131944444444 8.29755820556502  10.98125 8.40090857467348  C 11.0784722222222 8.39106568237744  11.1513888888889 8.38614423622942  11.2 8.38614423622942  C 11.2486111111111 8.38614423622942  11.3215277777778 8.39106568237744  11.41875 8.40090857467348  C 11.6666666666667 8.05148589816392  11.8902777777778 7.77588491387469  12.0895833333333 7.57410562180579  L 12.1333333333333 7.55934128336173  C 12.1527777777778 7.55934128336173  12.4541666666667 7.73159189854249  13.0375 8.07609312890403  C 13.0569444444444 8.0908574673481  13.0666666666667 8.10808252886617  13.0666666666667 8.12776831345826  C 13.0666666666667 8.25080446715881  12.9427083333333 8.59038425137233  12.6947916666667 9.14650766609881  C 12.7774305555556 9.25970092750331  12.8503472222222 9.38765852735188  12.9135416666667 9.53038046564452  Z M 12.9135416666667 1.97103918228279  C 13.6378472222222 2.04486087450312  14 2.12114328979746  14 2.19988642816582  L 14 3.23339011925043  C 14 3.31213325761878  13.6378472222222 3.38841567291312  12.9135416666667 3.46223736513345  C 12.8552083333333 3.59511641113004  12.7822916666667 3.72307401097861  12.6947916666667 3.84611016467916  C 12.9427083333333 4.40223357940564  13.0666666666667 4.74181336361916  13.0666666666667 4.8648495173197  C 13.0666666666667 4.88453530191179  13.0569444444444 4.90176036342987  13.0375 4.91652470187393  C 12.4444444444444 5.26594737838349  12.1430555555556 5.44065871663827  12.1333333333333 5.44065871663827  C 12.0944444444444 5.44065871663827  11.9826388888889 5.32500473215976  11.7979166666667 5.09369676320273  C 11.6131944444444 4.86238879424569  11.4868055555556 4.69505962521295  11.41875 4.59170925610449  C 11.3215277777778 4.60155214840053  11.2486111111111 4.60647359454855  11.2 4.60647359454855  C 11.1513888888889 4.60647359454855  11.0784722222222 4.60155214840053  10.98125 4.59170925610449  C 10.9131944444444 4.69505962521295  10.7868055555556 4.86238879424569  10.6020833333333 5.09369676320273  C 10.4173611111111 5.32500473215976  10.3055555555556 5.44065871663827  10.2666666666667 5.44065871663827  C 10.2569444444444 5.44065871663827  9.95555555555556 5.26594737838349  9.3625 4.91652470187393  C 9.34305555555556 4.90176036342987  9.33333333333333 4.88453530191179  9.33333333333333 4.8648495173197  C 9.33333333333333 4.74181336361916  9.45729166666667 4.40223357940564  9.70520833333333 3.84611016467916  C 9.61770833333333 3.72307401097861  9.54479166666667 3.59511641113004  9.48645833333333 3.46223736513345  C 8.76215277777778 3.38841567291312  8.4 3.31213325761878  8.4 3.23339011925043  L 8.4 2.19988642816582  C 8.4 2.12114328979746  8.76215277777778 2.04486087450312  9.48645833333333 1.97103918228279  C 9.54965277777778 1.82831724399016  9.62256944444445 1.70035964414159  9.70520833333333 1.58716638273708  C 9.45729166666667 1.0310429680106  9.33333333333333 0.691463183797084  9.33333333333333 0.568427030096537  C 9.33333333333333 0.548741245504448  9.34305555555556 0.531516183986372  9.3625 0.516751845542306  C 9.38194444444444 0.50690895324626  9.46701388888889 0.457694491766042  9.61770833333333 0.369108461101647  C 9.76840277777778 0.280522430437252  9.91180555555556 0.196857845920877  10.0479166666667 0.118114707552527  C 10.1840277777778 0.0393715691841747  10.2569444444444 0  10.2666666666667 0  C 10.3055555555556 0  10.4173611111111 0.11442362294151  10.6020833333333 0.343270868824531  C 10.7868055555556 0.572118114707552  10.9131944444444 0.738216922203294  10.98125 0.841567291311755  C 11.0784722222222 0.831724399015709  11.1513888888889 0.826802952867689  11.2 0.826802952867689  C 11.2486111111111 0.826802952867689  11.3215277777778 0.831724399015709  11.41875 0.841567291311755  C 11.6666666666667 0.492144614802194  11.8902777777778 0.216543630512965  12.0895833333333 0.0147643384440659  L 12.1333333333333 0  C 12.1527777777778 0  12.4541666666667 0.172250615180768  13.0375 0.516751845542306  C 13.0569444444444 0.531516183986372  13.0666666666667 0.548741245504448  13.0666666666667 0.568427030096537  C 13.0666666666667 0.691463183797084  12.9427083333333 1.0310429680106  12.6947916666667 1.58716638273708  C 12.7774305555556 1.70035964414159  12.8503472222222 1.82831724399016  12.9135416666667 1.97103918228279  Z " fill-rule="nonzero" fill="#d7d7d7" stroke="none" transform="matrix(1 0 0 1 13 863 )" />
  </g>
</svg>