<?xml version="1.0" encoding="utf-8"?>
<svg version="1.1" xmlns:xlink="http://www.w3.org/1999/xlink" width="15px" height="15px" viewBox="19 61  15 15" xmlns="http://www.w3.org/2000/svg">
  <path d="M 26.5 61  C 30.7 61  34 64.3  34 68.5  C 34 72.7  30.7 76  26.5 76  C 22.3 76  19 72.7  19 68.5  C 19 64.3  22.3 61  26.5 61  Z " fill-rule="nonzero" fill="#ffffff" stroke="none" />
  <path d="M 26.5 61.5  C 30.42 61.5  33.5 64.58  33.5 68.5  C 33.5 72.42  30.42 75.5  26.5 75.5  C 22.58 75.5  19.5 72.42  19.5 68.5  C 19.5 64.58  22.58 61.5  26.5 61.5  Z " stroke-width="1" stroke="#797979" fill="none" />
  <path d="M 26.5 72.25  C 24.4 72.25  22.75 70.6  22.75 68.5  C 22.75 66.4  24.4 64.75  26.5 64.75  C 28.6 64.75  30.25 66.4  30.25 68.5  C 30.25 70.6  28.6 72.25  26.5 72.25  " fill-rule="nonzero" fill="#797979" stroke="none" />
</svg>