<?xml version="1.0" encoding="utf-8"?>
<svg version="1.1" xmlns:xlink="http://www.w3.org/1999/xlink" width="15px" height="15px" viewBox="19 129  15 15" xmlns="http://www.w3.org/2000/svg">
  <path d="M 26.5 129  C 30.7 129  34 132.3  34 136.5  C 34 140.7  30.7 144  26.5 144  C 22.3 144  19 140.7  19 136.5  C 19 132.3  22.3 129  26.5 129  Z " fill-rule="nonzero" fill="#ffffff" stroke="none" />
  <path d="M 26.5 129.5  C 30.42 129.5  33.5 132.58  33.5 136.5  C 33.5 140.42  30.42 143.5  26.5 143.5  C 22.58 143.5  19.5 140.42  19.5 136.5  C 19.5 132.58  22.58 129.5  26.5 129.5  Z " stroke-width="1" stroke="#797979" fill="none" />
  <path d="M 26.5 140.25  C 24.4 140.25  22.75 138.6  22.75 136.5  C 22.75 134.4  24.4 132.75  26.5 132.75  C 28.6 132.75  30.25 134.4  30.25 136.5  C 30.25 138.6  28.6 140.25  26.5 140.25  " fill-rule="nonzero" fill="#797979" stroke="none" />
</svg>