<?xml version="1.0" encoding="utf-8"?>
<svg version="1.1" xmlns:xlink="http://www.w3.org/1999/xlink" width="15px" height="15px" viewBox="19 201  15 15" xmlns="http://www.w3.org/2000/svg">
  <path d="M 26.5 201  C 30.7 201  34 204.3  34 208.5  C 34 212.7  30.7 216  26.5 216  C 22.3 216  19 212.7  19 208.5  C 19 204.3  22.3 201  26.5 201  Z " fill-rule="nonzero" fill="#ffffff" stroke="none" />
  <path d="M 26.5 201.5  C 30.42 201.5  33.5 204.58  33.5 208.5  C 33.5 212.42  30.42 215.5  26.5 215.5  C 22.58 215.5  19.5 212.42  19.5 208.5  C 19.5 204.58  22.58 201.5  26.5 201.5  Z " stroke-width="1" stroke="#797979" fill="none" />
  <path d="M 26.5 212.25  C 24.4 212.25  22.75 210.6  22.75 208.5  C 22.75 206.4  24.4 204.75  26.5 204.75  C 28.6 204.75  30.25 206.4  30.25 208.5  C 30.25 210.6  28.6 212.25  26.5 212.25  " fill-rule="nonzero" fill="#797979" stroke="none" />
</svg>