<?xml version="1.0" encoding="utf-8"?>
<svg version="1.1" xmlns:xlink="http://www.w3.org/1999/xlink" width="15px" height="15px" viewBox="19 465  15 15" xmlns="http://www.w3.org/2000/svg">
  <path d="M 26.5 465  C 30.7 465  34 468.3  34 472.5  C 34 476.7  30.7 480  26.5 480  C 22.3 480  19 476.7  19 472.5  C 19 468.3  22.3 465  26.5 465  Z " fill-rule="nonzero" fill="#ffffff" stroke="none" />
  <path d="M 26.5 465.5  C 30.42 465.5  33.5 468.58  33.5 472.5  C 33.5 476.42  30.42 479.5  26.5 479.5  C 22.58 479.5  19.5 476.42  19.5 472.5  C 19.5 468.58  22.58 465.5  26.5 465.5  Z " stroke-width="1" stroke="#797979" fill="none" />
  <path d="M 26.5 476.25  C 24.4 476.25  22.75 474.6  22.75 472.5  C 22.75 470.4  24.4 468.75  26.5 468.75  C 28.6 468.75  30.25 470.4  30.25 472.5  C 30.25 474.6  28.6 476.25  26.5 476.25  " fill-rule="nonzero" fill="#797979" stroke="none" />
</svg>