<?xml version="1.0" encoding="utf-8"?>
<svg version="1.1" xmlns:xlink="http://www.w3.org/1999/xlink" width="15px" height="15px" viewBox="19 329  15 15" xmlns="http://www.w3.org/2000/svg">
  <path d="M 26.5 329  C 30.7 329  34 332.3  34 336.5  C 34 340.7  30.7 344  26.5 344  C 22.3 344  19 340.7  19 336.5  C 19 332.3  22.3 329  26.5 329  Z " fill-rule="nonzero" fill="#ffffff" stroke="none" />
  <path d="M 26.5 329.5  C 30.42 329.5  33.5 332.58  33.5 336.5  C 33.5 340.42  30.42 343.5  26.5 343.5  C 22.58 343.5  19.5 340.42  19.5 336.5  C 19.5 332.58  22.58 329.5  26.5 329.5  Z " stroke-width="1" stroke="#797979" fill="none" />
  <path d="M 26.5 340.25  C 24.4 340.25  22.75 338.6  22.75 336.5  C 22.75 334.4  24.4 332.75  26.5 332.75  C 28.6 332.75  30.25 334.4  30.25 336.5  C 30.25 338.6  28.6 340.25  26.5 340.25  " fill-rule="nonzero" fill="#797979" stroke="none" />
</svg>