<?xml version="1.0" encoding="utf-8"?>
<svg version="1.1" xmlns:xlink="http://www.w3.org/1999/xlink" width="14px" height="9px" xmlns="http://www.w3.org/2000/svg">
  <g transform="matrix(1 0 0 1 -13 -80 )">
    <path d="M 7.29166666666667 5.208984375  L 10.7795138888889 4.1484375  L 10.8888888888889 6  C 10.9050925925926 6.26953125  10.7390046296296 6.51953125  10.390625 6.75  C 10.0422453703704 6.98046875  9.56626157407408 7.1630859375  8.96267361111111 7.2978515625  C 8.35908564814815 7.4326171875  7.70486111111111 7.5  7 7.5  C 6.29513888888889 7.5  5.64091435185185 7.4326171875  5.03732638888889 7.2978515625  C 4.43373842592593 7.1630859375  3.95775462962963 6.98046875  3.609375 6.75  C 3.26099537037037 6.51953125  3.09490740740741 6.26953125  3.11111111111111 6  L 3.22048611111111 4.1484375  L 6.70833333333333 5.208984375  C 6.7974537037037 5.236328125  6.89467592592593 5.25  7 5.25  C 7.10532407407408 5.25  7.2025462962963 5.236328125  7.29166666666667 5.208984375  Z M 13.8663194444444 2.068359375  C 13.9554398148148 2.099609375  14 2.16015625  14 2.25  C 14 2.33984375  13.9554398148148 2.400390625  13.8663194444444 2.431640625  L 7.06076388888889 4.494140625  C 7.04456018518519 4.498046875  7.02430555555556 4.5  7 4.5  C 6.97569444444444 4.5  6.95543981481481 4.498046875  6.93923611111111 4.494140625  L 2.97743055555556 3.287109375  C 2.80324074074074 3.419921875  2.65943287037037 3.6376953125  2.54600694444444 3.9404296875  C 2.43258101851852 4.2431640625  2.36371527777778 4.591796875  2.33940972222222 4.986328125  C 2.59461805555556 5.126953125  2.72222222222222 5.33984375  2.72222222222222 5.625  C 2.72222222222222 5.89453125  2.60474537037037 6.103515625  2.36979166666667 6.251953125  L 2.72222222222222 8.7890625  C 2.73032407407407 8.84375  2.71412037037037 8.892578125  2.67361111111111 8.935546875  C 2.63715277777778 8.978515625  2.58854166666667 9  2.52777777777778 9  L 1.36111111111111 9  C 1.30034722222222 9  1.25173611111111 8.978515625  1.21527777777778 8.935546875  C 1.17476851851852 8.892578125  1.15856481481481 8.84375  1.16666666666667 8.7890625  L 1.51909722222222 6.251953125  C 1.28414351851852 6.103515625  1.16666666666667 5.89453125  1.16666666666667 5.625  C 1.16666666666667 5.33984375  1.29832175925926 5.123046875  1.56163194444444 4.974609375  C 1.60619212962963 4.166015625  1.8046875 3.521484375  2.15711805555556 3.041015625  L 0.133680555555556 2.431640625  C 0.0445601851851852 2.400390625  0 2.33984375  0 2.25  C 0 2.16015625  0.0445601851851852 2.099609375  0.133680555555556 2.068359375  L 6.93923611111111 0.00585937499999967  C 6.95543981481481 0.00195312499999956  6.97569444444444 0  7 0  C 7.02430555555556 0  7.04456018518519 0.00195312499999956  7.06076388888889 0.00585937499999967  L 13.8663194444444 2.068359375  Z " fill-rule="nonzero" fill="#d7d7d7" stroke="none" transform="matrix(1 0 0 1 13 80 )" />
  </g>
</svg>