<?xml version="1.0" encoding="utf-8"?>
<svg version="1.1" xmlns:xlink="http://www.w3.org/1999/xlink" width="14px" height="14px" xmlns="http://www.w3.org/2000/svg">
  <g transform="matrix(1 0 0 1 -13 -470 )">
    <path d="M 13.7906371911573 5.77113133940182  L 12.5344603381014 7  L 13.7906371911573 8.22886866059818  C 13.9726918075423 8.39878630255743  14.0333766796706 8.6111833550065  13.9726918075423 8.86605981794538  C 13.8998699609883 9.11486779367143  13.7420892934547 9.26961421759861  13.4993498049415 9.33029908972692  L 11.7880364109233 9.76723016905071  L 12.2704811443433 11.4603381014304  C 12.3433029908973 11.7091460771565  12.2856523623754 11.9215431296055  12.0975292587776 12.0975292587776  C 11.9215431296055 12.2856523623754  11.7091460771565 12.3433029908973  11.4603381014304 12.2704811443433  L 9.76723016905071 11.7880364109233  L 9.33029908972692 13.4993498049415  C 9.26961421759861 13.7420892934547  9.11486779367144 13.8998699609883  8.86605981794538 13.9726918075423  C 8.79323797139142 13.9848287819679  8.73558734286953 13.9908972691808  8.69310793237971 13.9908972691808  C 8.50498482878197 13.9908972691808  8.35023840485479 13.9241439098396  8.22886866059818 13.7906371911573  L 7 12.5344603381014  L 5.77113133940182 13.7906371911573  C 5.60121369744257 13.9726918075423  5.3888166449935 14.0333766796706  5.13394018205462 13.9726918075423  C 4.88513220632857 13.9059384482011  4.73038578240139 13.7481577806675  4.66970091027308 13.4993498049415  L 4.23276983094929 11.7880364109233  L 2.53966189856957 12.2704811443433  C 2.29085392284352 12.3433029908973  2.07845687039445 12.2856523623754  1.90247074122237 12.0975292587776  C 1.71434763762462 11.9215431296055  1.65669700910273 11.7091460771565  1.7295188556567 11.4603381014304  L 2.21196358907672 9.76723016905071  L 0.500650195058518 9.33029908972692  C 0.257910706545297 9.26961421759861  0.100130039011704 9.11486779367143  0.0273081924577373 8.86605981794538  C -0.0333766796705678 8.6111833550065  0.0273081924577373 8.39878630255743  0.209362808842653 8.22886866059818  L 1.46553966189857 7  L 0.209362808842653 5.77113133940182  C 0.0273081924577373 5.60121369744257  -0.0333766796705678 5.3888166449935  0.0273081924577373 5.13394018205462  C 0.100130039011704 4.88513220632857  0.257910706545297 4.73038578240139  0.500650195058518 4.66970091027308  L 2.21196358907672 4.23276983094929  L 1.7295188556567 2.53966189856957  C 1.65669700910273 2.29085392284352  1.71434763762462 2.07845687039445  1.90247074122237 1.90247074122237  C 2.07845687039445 1.71434763762462  2.29085392284352 1.65669700910273  2.53966189856957 1.7295188556567  L 4.23276983094929 2.21196358907672  L 4.66970091027308 0.500650195058518  C 4.73038578240139 0.251842219332465  4.88513220632857 0.0970957954052871  5.13394018205462 0.0364109232769825  C 5.38274815778067 -0.0364109232769825  5.59514521022974 0.0212397052449067  5.77113133940182 0.209362808842653  L 7 1.47464239271782  L 8.22886866059818 0.209362808842653  C 8.40485478977026 0.0273081924577376  8.61725184221933 -0.0303424360641547  8.86605981794538 0.0364109232769825  C 9.11486779367144 0.0970957954052871  9.26961421759861 0.251842219332465  9.33029908972692 0.500650195058518  L 9.76723016905071 2.21196358907672  L 11.4603381014304 1.7295188556567  C 11.7091460771565 1.65669700910273  11.9215431296055 1.71434763762462  12.0975292587776 1.90247074122237  C 12.2856523623754 2.07845687039445  12.3433029908973 2.29085392284352  12.2704811443433 2.53966189856957  L 11.7880364109233 4.23276983094929  L 13.4993498049415 4.66970091027308  C 13.7420892934547 4.73038578240139  13.8998699609883 4.88513220632857  13.9726918075423 5.13394018205462  C 14.0333766796706 5.3888166449935  13.9726918075423 5.60121369744257  13.7906371911573 5.77113133940182  Z " fill-rule="nonzero" fill="#d7d7d7" stroke="none" transform="matrix(1 0 0 1 13 470 )" />
  </g>
</svg>