<?xml version="1.0" encoding="utf-8"?>
<svg version="1.1" xmlns:xlink="http://www.w3.org/1999/xlink" width="14px" height="14px" xmlns="http://www.w3.org/2000/svg">
  <g transform="matrix(1 0 0 1 -13 -638 )">
    <path d="M 5.83333333333333 10.8463541666667  C 5.99131944444444 10.8463541666667  6.12803819444444 10.7886284722222  6.24348958333333 10.6731770833333  L 11.83984375 5.07682291666667  C 11.9552951388889 4.96137152777778  12.0130208333333 4.82465277777778  12.0130208333333 4.66666666666667  C 12.0130208333333 4.50868055555555  11.9552951388889 4.37196180555555  11.83984375 4.25651041666667  L 10.91015625 3.32682291666667  C 10.7947048611111 3.21137152777778  10.6579861111111 3.15364583333333  10.5 3.15364583333333  C 10.3420138888889 3.15364583333333  10.2052951388889 3.21137152777778  10.08984375 3.32682291666667  L 5.83333333333333 7.58333333333333  L 3.91015625 5.66015625  C 3.79470486111111 5.54470486111111  3.65798611111111 5.48697916666667  3.5 5.48697916666667  C 3.34201388888889 5.48697916666667  3.20529513888889 5.54470486111111  3.08984375 5.66015625  L 2.16015625 6.58984375  C 2.04470486111111 6.70529513888889  1.98697916666667 6.84201388888889  1.98697916666667 7  C 1.98697916666667 7.15798611111111  2.04470486111111 7.29470486111111  2.16015625 7.41015625  L 5.42317708333333 10.6731770833333  C 5.53862847222222 10.7886284722222  5.67534722222222 10.8463541666667  5.83333333333333 10.8463541666667  Z M 13.2298177083333 0.770182291666667  C 13.7432725694444 1.28363715277778  14 1.90190972222222  14 2.625  L 14 11.375  C 14 12.0980902777778  13.7432725694444 12.7163628472222  13.2298177083333 13.2298177083333  C 12.7163628472222 13.7432725694444  12.0980902777778 14  11.375 14  L 2.625 14  C 1.90190972222222 14  1.28363715277778 13.7432725694444  0.770182291666667 13.2298177083333  C 0.256727430555556 12.7163628472222  0 12.0980902777778  0 11.375  L 0 2.625  C 0 1.90190972222222  0.256727430555556 1.28363715277778  0.770182291666667 0.770182291666667  C 1.28363715277778 0.256727430555555  1.90190972222222 0  2.625 0  L 11.375 0  C 12.0980902777778 0  12.7163628472222 0.256727430555555  13.2298177083333 0.770182291666667  Z " fill-rule="nonzero" fill="#d7d7d7" stroke="none" transform="matrix(1 0 0 1 13 638 )" />
  </g>
</svg>