<?xml version="1.0" encoding="utf-8"?>
<svg version="1.1" xmlns:xlink="http://www.w3.org/1999/xlink" width="14px" height="13px" xmlns="http://www.w3.org/2000/svg">
  <g transform="matrix(1 0 0 1 -13 -22 )">
    <path d="M 13.5288461538462 4.66099558916194  C 13.8429487179487 4.71014492753623  14 4.83574879227053  14 5.03780718336484  C 14 5.15795001050199  13.9270833333333 5.28901491283344  13.78125 5.43100189035917  L 10.7271634615385 8.33081285444234  L 11.4507211538462 12.4265910522999  C 11.4563301282051 12.4648183154799  11.4591346153846 12.5194286914514  11.4591346153846 12.5904221802142  C 11.4591346153846 12.7051039697543  11.4296875 12.8020373871035  11.3707932692308 12.8812224322621  C 11.3118990384615 12.9604074774207  11.2263621794872 13  11.1141826923077 13  C 11.0076121794872 13  10.8954326923077 12.9672337744171  10.7776442307692 12.9017013232514  L 7 10.9684940138626  L 3.22235576923077 12.9017013232514  C 3.09895833333333 12.9672337744171  2.98677884615385 13  2.88581730769231 13  C 2.76802884615385 13  2.6796875 12.9604074774207  2.62079326923077 12.8812224322621  C 2.56189903846154 12.8020373871035  2.53245192307692 12.7051039697543  2.53245192307692 12.5904221802142  C 2.53245192307692 12.5576559546314  2.5380608974359 12.5030455786599  2.54927884615385 12.4265910522999  L 3.27283653846154 8.33081285444234  L 0.210336538461538 5.43100189035917  C 0.0701121794871795 5.28355387523629  0 5.15248897290485  0 5.03780718336484  C 0 4.83574879227053  0.157051282051282 4.71014492753623  0.471153846153846 4.66099558916194  L 4.69471153846154 4.06301197227473  L 6.58774038461539 0.335853812224322  C 6.6943108974359 0.11195127074144  6.83173076923077 0  7 0  C 7.16826923076923 0  7.3056891025641 0.11195127074144  7.41225961538462 0.335853812224322  L 9.30528846153846 4.06301197227473  L 13.5288461538462 4.66099558916194  Z " fill-rule="nonzero" fill="#d7d7d7" stroke="none" transform="matrix(1 0 0 1 13 22 )" />
  </g>
</svg>