<?xml version="1.0" encoding="utf-8"?>
<svg version="1.1" xmlns:xlink="http://www.w3.org/1999/xlink" width="14px" height="11px" xmlns="http://www.w3.org/2000/svg">
  <g transform="matrix(1 0 0 1 -13 -751 )">
    <path d="M 3.7939453125 3.06324940047962  C 3.90787760416667 2.95553557154276  3.96484375 2.81155075939249  3.96484375 2.63129496402878  C 3.96484375 2.45103916866507  3.90787760416667 2.30595523581135  3.7939453125 2.19604316546763  C 3.68001302083333 2.0861310951239  3.52962239583333 2.03117505995204  3.3427734375 2.03117505995204  C 3.14680989583333 2.03117505995204  2.9736328125 2.08723021582734  2.8232421875 2.19934052757794  C 2.6728515625 2.31145083932854  2.59765625 2.45543565147882  2.59765625 2.63129496402878  C 2.59765625 2.80275779376499  2.6728515625 2.94454436450839  2.8232421875 3.05665467625899  C 2.9736328125 3.16876498800959  3.14680989583333 3.22482014388489  3.3427734375 3.22482014388489  C 3.52962239583333 3.22482014388489  3.68001302083333 3.17096322941647  3.7939453125 3.06324940047962  Z M 8.86962890625 6.31115107913669  C 8.98583984375 6.21442845723421  9.0439453125 6.10231814548361  9.0439453125 5.97482014388489  C 9.0439453125 5.85171862509992  8.98583984375 5.7418065547562  8.86962890625 5.64508393285372  C 8.75341796875 5.54836131095124  8.60416666666667 5.5  8.421875 5.5  C 8.298828125 5.5  8.18603515625 5.54946043165468  8.08349609375 5.64838129496403  C 7.98095703125 5.74730215827338  7.9296875 5.85611510791367  7.9296875 5.97482014388489  C 7.9296875 6.09792166266986  7.98095703125 6.20893285371703  8.08349609375 6.30785371702638  C 8.18603515625 6.40677458033573  8.298828125 6.45623501199041  8.421875 6.45623501199041  C 8.60416666666667 6.45623501199041  8.75341796875 6.40787370103917  8.86962890625 6.31115107913669  Z M 7.26318359375 3.06324940047962  C 7.37483723958333 2.95553557154276  7.4306640625 2.81155075939249  7.4306640625 2.63129496402878  C 7.4306640625 2.45103916866507  7.37483723958333 2.30595523581135  7.26318359375 2.19604316546763  C 7.15152994791667 2.0861310951239  7.00227864583333 2.03117505995204  6.8154296875 2.03117505995204  C 6.61946614583333 2.03117505995204  6.4462890625 2.08723021582734  6.2958984375 2.19934052757794  C 6.1455078125 2.31145083932854  6.0703125 2.45543565147882  6.0703125 2.63129496402878  C 6.0703125 2.80275779376499  6.1455078125 2.94454436450839  6.2958984375 3.05665467625899  C 6.4462890625 3.16876498800959  6.61946614583333 3.22482014388489  6.8154296875 3.22482014388489  C 7.00227864583333 3.22482014388489  7.15152994791667 3.17096322941647  7.26318359375 3.06324940047962  Z M 11.59375 6.31115107913669  C 11.7122395833333 6.21442845723421  11.771484375 6.10231814548361  11.771484375 5.97482014388489  C 11.771484375 5.85171862509992  11.7122395833333 5.7418065547562  11.59375 5.64508393285372  C 11.4752604166667 5.54836131095124  11.3271484375 5.5  11.1494140625 5.5  C 11.0263671875 5.5  10.91357421875 5.54946043165468  10.81103515625 5.64838129496403  C 10.70849609375 5.74730215827338  10.6572265625 5.85611510791367  10.6572265625 5.97482014388489  C 10.6572265625 6.09792166266986  10.70849609375 6.20893285371703  10.81103515625 6.30785371702638  C 10.91357421875 6.40677458033573  11.0263671875 6.45623501199041  11.1494140625 6.45623501199041  C 11.3271484375 6.45623501199041  11.4752604166667 6.40787370103917  11.59375 6.31115107913669  Z M 9.02001953125 1.63878896882494  C 9.50081380208333 2.1509792166267  9.81184895833333 2.72362110311751  9.953125 3.35671462829736  C 9.81184895833333 3.33912869704237  9.65234375 3.33033573141487  9.474609375 3.33033573141487  C 8.70442708333333 3.33033573141487  7.99576822916667 3.4996003197442  7.3486328125 3.83812949640288  C 6.70149739583333 4.17665867306155  6.19222005208333 4.63499200639488  5.82080078125 5.21312949640288  C 5.44938151041667 5.79126698641087  5.263671875 6.42326139088729  5.263671875 7.10911270983213  C 5.263671875 7.45203836930456  5.31608072916667 7.78617106314948  5.4208984375 8.11151079136691  C 5.26139322916667 8.12470023980815  5.1064453125 8.13129496402878  4.9560546875 8.13129496402878  C 4.83756510416667 8.13129496402878  4.7236328125 8.12799760191846  4.6142578125 8.12140287769784  C 4.5048828125 8.11480815347722  4.37955729166667 8.10051958433253  4.23828125 8.07853717026379  C 4.09700520833333 8.05655475619504  3.99560546875 8.04116706634692  3.93408203125 8.03237410071942  C 3.87255859375 8.02358113509193  3.74837239583333 8.00049960031974  3.5615234375 7.96312949640288  C 3.37467447916667 7.92575939248601  3.2607421875 7.90267785771383  3.2197265625 7.89388489208633  L 1.490234375 8.73141486810552  L 1.982421875 7.29376498800959  C 0.660807291666667 6.40127897681854  0 5.32414068745004  0 4.06235011990408  C 0 3.3193445243805  0.22216796875 2.63569144684252  0.66650390625 2.01139088729017  C 1.11083984375 1.38709032773781  1.71240234375 0.895783373301358  2.47119140625 0.537470023980816  C 3.22998046875 0.179156674660271  4.05826822916667 0  4.9560546875 0  C 5.75813802083333 0  6.51578776041667 0.145083932853717  7.22900390625 0.435251798561151  C 7.94222005208333 0.725419664268586  8.53922526041667 1.12659872102318  9.02001953125 1.63878896882494  Z M 13.41552734375 5.31864508393285  C 13.80517578125 5.85281774580336  14 6.43205435651479  14 7.05635491606715  C 14 7.57074340527578  13.8439127604167 8.06205035971223  13.53173828125 8.5302757793765  C 13.2195638020833 8.99850119904077  12.796875 9.42386091127098  12.263671875 9.80635491606715  L 12.6396484375 11  L 11.279296875 10.281175059952  C 10.595703125 10.4438449240608  10.0989583333333 10.5251798561151  9.7890625 10.5251798561151  C 9.01888020833333 10.5251798561151  8.31022135416667 10.3702038369305  7.6630859375 10.0602517985612  C 7.01595052083333 9.75029976019185  6.50667317708333 9.32933653077538  6.13525390625 8.79736211031175  C 5.76383463541667 8.26538768984812  5.578125 7.68505195843325  5.578125 7.05635491606715  C 5.578125 6.42765787370104  5.76383463541667 5.84732214228617  6.13525390625 5.31534772182254  C 6.50667317708333 4.78337330135891  7.01595052083333 4.36241007194245  7.6630859375 4.05245803357314  C 8.31022135416667 3.74250599520384  9.01888020833333 3.58752997601918  9.7890625 3.58752997601918  C 10.5227864583333 3.58752997601918  11.2132161458333 3.74250599520384  11.8603515625 4.05245803357314  C 12.5074869791667 4.36241007194245  13.02587890625 4.78447242206235  13.41552734375 5.31864508393285  Z " fill-rule="nonzero" fill="#d7d7d7" stroke="none" transform="matrix(1 0 0 1 13 751 )" />
  </g>
</svg>