<?xml version="1.0" encoding="utf-8"?>
<svg version="1.1" xmlns:xlink="http://www.w3.org/1999/xlink" width="11px" height="14px" xmlns="http://www.w3.org/2000/svg">
  <g transform="matrix(1 0 0 1 -13 -805 )">
    <path d="M 3.05555555555556 7  L 10.0833333333333 7  C 10.337962962963 7  10.5543981481482 7.08506944444444  10.7326388888889 7.25520833333333  C 10.9108796296296 7.42534722222222  11 7.63194444444444  11 7.875  L 11 13.125  C 11 13.3680555555556  10.9108796296296 13.5746527777778  10.7326388888889 13.7447916666667  C 10.5543981481482 13.9149305555556  10.337962962963 14  10.0833333333333 14  L 0.916666666666667 14  C 0.662037037037037 14  0.445601851851852 13.9149305555556  0.267361111111111 13.7447916666667  C 0.0891203703703704 13.5746527777778  0 13.3680555555556  0 13.125  L 0 7.875  C 0 7.63194444444444  0.0891203703703704 7.42534722222222  0.267361111111111 7.25520833333333  C 0.445601851851852 7.08506944444444  0.662037037037037 7  0.916666666666667 7  L 1.22222222222222 7  L 1.22222222222222 4.08333333333333  C 1.22222222222222 2.95920138888889  1.64076967592593 1.99761284722222  2.47786458333333 1.19856770833333  C 3.31495949074074 0.399522569444445  4.32233796296296 0  5.5 0  C 6.67766203703704 0  7.68504050925926 0.399522569444445  8.52213541666667 1.19856770833333  C 9.35923032407407 1.99761284722222  9.77777777777778 2.95920138888889  9.77777777777778 4.08333333333333  C 9.77777777777778 4.24131944444444  9.71730324074074 4.37803819444444  9.59635416666667 4.49348958333333  C 9.47540509259259 4.60894097222222  9.33217592592593 4.66666666666667  9.16666666666667 4.66666666666667  L 8.55555555555556 4.66666666666667  C 8.3900462962963 4.66666666666667  8.24681712962963 4.60894097222222  8.12586805555556 4.49348958333333  C 8.00491898148148 4.37803819444444  7.94444444444444 4.24131944444444  7.94444444444444 4.08333333333333  C 7.94444444444444 3.43923611111111  7.70572916666667 2.88932291666667  7.22829861111111 2.43359375  C 6.75086805555556 1.97786458333333  6.17476851851852 1.75  5.5 1.75  C 4.82523148148148 1.75  4.24913194444444 1.97786458333333  3.77170138888889 2.43359375  C 3.29427083333333 2.88932291666667  3.05555555555556 3.43923611111111  3.05555555555556 4.08333333333333  L 3.05555555555556 7  Z " fill-rule="nonzero" fill="#d7d7d7" stroke="none" transform="matrix(1 0 0 1 13 805 )" />
  </g>
</svg>