<?xml version="1.0" encoding="utf-8"?>
<svg version="1.1" xmlns:xlink="http://www.w3.org/1999/xlink" width="14px" height="13px" xmlns="http://www.w3.org/2000/svg">
  <g transform="matrix(1 0 0 1 -13 -581 )">
    <path d="M 13.2857142857143 2.59830729166667  C 13.4985994397759 2.68294270833333  13.6638655462185 2.80425347222222  13.781512605042 2.96223958333333  C 14.0056022408964 3.28385416666667  14.0560224089636 3.64778645833333  13.9327731092437 4.05403645833333  L 11.6218487394958 11.7220052083333  C 11.515406162465 12.0831163194444  11.3011204481793 12.3863932291667  10.9789915966387 12.6318359375  C 10.656862745098 12.8772786458333  10.3137254901961 13  9.94957983193277 13  L 2.19327731092437 13  C 1.76190476190476 13  1.34593837535014 12.8490668402778  0.945378151260504 12.5472005208333  C 0.544817927170868 12.2453342013889  0.266106442577031 11.8743489583333  0.109243697478992 11.4342447916667  C -0.0252100840336134 11.0562065972222  -0.030812324929972 10.6979166666667  0.092436974789916 10.359375  C 0.092436974789916 10.3368055555556  0.100840336134454 10.2606336805556  0.117647058823529 10.130859375  C 0.134453781512605 10.0010850694444  0.145658263305322 9.89670138888889  0.151260504201681 9.81770833333333  C 0.156862745098039 9.77256944444444  0.148459383753501 9.7119140625  0.126050420168067 9.6357421875  C 0.103641456582633 9.5595703125  0.0952380952380952 9.50455729166667  0.100840336134454 9.470703125  C 0.112044817927171 9.40863715277778  0.134453781512605 9.34939236111111  0.168067226890756 9.29296875  C 0.201680672268908 9.23654513888889  0.247899159663866 9.17024739583333  0.30672268907563 9.09407552083333  C 0.365546218487395 9.01790364583333  0.411764705882353 8.95160590277778  0.445378151260504 8.89518229166667  C 0.574229691876751 8.68077256944444  0.700280112044818 8.42263454861111  0.823529411764706 8.12076822916667  C 0.946778711484594 7.81890190972222  1.03081232492997 7.56076388888889  1.07563025210084 7.34635416666667  C 1.09243697478992 7.28993055555556  1.09383753501401 7.20529513888889  1.07983193277311 7.09244791666667  C 1.06582633053221 6.97960069444444  1.06442577030812 6.90060763888889  1.07563025210084 6.85546875  C 1.09243697478992 6.79340277777778  1.14005602240896 6.71440972222222  1.21848739495798 6.61848958333333  C 1.296918767507 6.52256944444444  1.34453781512605 6.45768229166667  1.36134453781513 6.423828125  C 1.47899159663866 6.220703125  1.59663865546218 5.96115451388889  1.71428571428571 5.64518229166667  C 1.83193277310924 5.32921006944444  1.90196078431373 5.07530381944444  1.92436974789916 4.88346354166667  C 1.92997198879552 4.83268229166667  1.92296918767507 4.74240451388889  1.90336134453782 4.61263020833333  C 1.88375350140056 4.48285590277778  1.88515406162465 4.40386284722222  1.90756302521008 4.37565104166667  C 1.92997198879552 4.30230034722222  1.99159663865546 4.21625434027778  2.09243697478992 4.11751302083333  C 2.19327731092437 4.01877170138889  2.25490196078431 3.95529513888889  2.27731092436975 3.92708333333333  C 2.38375350140056 3.78038194444444  2.50280112044818 3.5419921875  2.63445378151261 3.2119140625  C 2.76610644257703 2.8818359375  2.84313725490196 2.60959201388889  2.8655462184874 2.39518229166667  C 2.87114845938375 2.35004340277778  2.86274509803922 2.27810329861111  2.84033613445378 2.17936197916667  C 2.81792717086835 2.08062065972222  2.81232492997199 2.005859375  2.82352941176471 1.955078125  C 2.83473389355742 1.90993923611111  2.85994397759104 1.85915798611111  2.89915966386555 1.802734375  C 2.93837535014006 1.74631076388889  2.98879551820728 1.68142361111111  3.05042016806723 1.60807291666667  C 3.11204481792717 1.53472222222222  3.15966386554622 1.47547743055555  3.19327731092437 1.43033854166667  C 3.23809523809524 1.36263020833333  3.2843137254902 1.27658420138889  3.33193277310924 1.17220052083333  C 3.37955182072829 1.06781684027778  3.42156862745098 0.969075520833334  3.45798319327731 0.8759765625  C 3.49439775910364 0.782877604166666  3.53921568627451 0.681315104166666  3.59243697478992 0.5712890625  C 3.64565826330532 0.461263020833334  3.70028011204482 0.370985243055555  3.7563025210084 0.300455729166666  C 3.81232492997199 0.229926215277776  3.88655462184874 0.163628472222221  3.97899159663866 0.1015625  C 4.07142857142857 0.039496527777776  4.17226890756303 0.00705295138888873  4.28151260504202 0.00423177083333381  C 4.39075630252101 0.00141059027777601  4.52380952380952 0.0169270833333338  4.68067226890756 0.05078125  L 4.67226890756303 0.076171875  C 4.88515406162465 0.025390625  5.02801120448179 0  5.10084033613445 0  L 11.4957983193277 0  C 11.9103641456583 0  12.2296918767507 0.15798611111111  12.453781512605 0.473958333333334  C 12.6778711484594 0.789930555555555  12.7282913165266 1.15668402777778  12.6050420168067 1.57421875  L 10.3025210084034 9.2421875  C 10.1008403361345 9.91362847222222  9.90056022408964 10.3466796875  9.70168067226891 10.5413411458333  C 9.50280112044818 10.7360026041667  9.14285714285714 10.8333333333333  8.6218487394958 10.8333333333333  L 1.31932773109244 10.8333333333333  C 1.16806722689076 10.8333333333333  1.06162464985994 10.8756510416667  1 10.9602864583333  C 0.938375350140056 11.0505642361111  0.935574229691877 11.171875  0.991596638655462 11.32421875  C 1.12605042016807 11.7191840277778  1.52941176470588 11.9166666666667  2.20168067226891 11.9166666666667  L 9.95798319327731 11.9166666666667  C 10.1204481792717 11.9166666666667  10.2773109243697 11.8729383680556  10.4285714285714 11.7854817708333  C 10.5798319327731 11.6980251736111  10.6778711484594 11.5809461805556  10.7226890756303 11.4342447916667  L 13.2436974789916 3.08072916666667  C 13.2829131652661 2.95659722222222  13.296918767507 2.79578993055555  13.2857142857143 2.59830729166667  Z M 5.01680672268908 2.4375  L 4.84033613445378 2.97916666666667  C 4.81792717086835 3.05251736111111  4.82352941176471 3.11599392361111  4.85714285714286 3.16959635416667  C 4.89075630252101 3.22319878472222  4.94677871148459 3.25  5.02521008403361 3.25  L 10.1344537815126 3.25  C 10.2072829131653 3.25  10.2787114845938 3.22319878472222  10.3487394957983 3.16959635416667  C 10.4187675070028 3.11599392361111  10.4649859943978 3.05251736111111  10.4873949579832 2.97916666666667  L 10.6638655462185 2.4375  C 10.6862745098039 2.36414930555555  10.6806722689076 2.30067274305555  10.6470588235294 2.2470703125  C 10.6134453781513 2.19346788194444  10.5574229691877 2.16666666666667  10.4789915966387 2.16666666666667  L 5.36974789915966 2.16666666666667  C 5.296918767507 2.16666666666667  5.22549019607843 2.19346788194444  5.15546218487395 2.2470703125  C 5.08543417366947 2.30067274305555  5.03921568627451 2.36414930555555  5.01680672268908 2.4375  Z M 4.31932773109244 4.60416666666667  L 4.14285714285714 5.14583333333333  C 4.12044817927171 5.21918402777778  4.12605042016807 5.28266059027778  4.15966386554622 5.33626302083333  C 4.19327731092437 5.38986545138889  4.24929971988796 5.41666666666667  4.32773109243698 5.41666666666667  L 9.43697478991597 5.41666666666667  C 9.50980392156863 5.41666666666667  9.5812324929972 5.38986545138889  9.65126050420168 5.33626302083333  C 9.72128851540617 5.28266059027778  9.76750700280112 5.21918402777778  9.78991596638656 5.14583333333333  L 9.96638655462185 4.60416666666667  C 9.98879551820728 4.53081597222222  9.98319327731092 4.46733940972222  9.94957983193277 4.41373697916667  C 9.91596638655462 4.36013454861111  9.85994397759104 4.33333333333333  9.78151260504202 4.33333333333333  L 4.67226890756303 4.33333333333333  C 4.59943977591036 4.33333333333333  4.52801120448179 4.36013454861111  4.45798319327731 4.41373697916667  C 4.38795518207283 4.46733940972222  4.34173669467787 4.53081597222222  4.31932773109244 4.60416666666667  Z " fill-rule="nonzero" fill="#d7d7d7" stroke="none" transform="matrix(1 0 0 1 13 581 )" />
  </g>
</svg>