<?xml version="1.0" encoding="utf-8"?>
<svg version="1.1" xmlns:xlink="http://www.w3.org/1999/xlink" width="10px" height="17px" xmlns="http://www.w3.org/2000/svg">
  <g transform="matrix(1 0 0 1 -48 -245 )">
    <path d="M 5.73567708333333 16.050390625  C 5.93967013888889 15.8423177083333  6.04166666666667 15.5921875  6.04166666666667 15.3  C 6.04166666666667 15.0078125  5.93967013888889 14.7576822916667  5.73567708333333 14.549609375  C 5.53168402777778 14.3415364583333  5.28645833333333 14.2375  5 14.2375  C 4.71354166666667 14.2375  4.46831597222222 14.3415364583333  4.26432291666667 14.549609375  C 4.06032986111111 14.7576822916667  3.95833333333333 15.0078125  3.95833333333333 15.3  C 3.95833333333333 15.5921875  4.06032986111111 15.8423177083333  4.26432291666667 16.050390625  C 4.46831597222222 16.2584635416667  4.71354166666667 16.3625  5 16.3625  C 5.28645833333333 16.3625  5.53168402777778 16.2584635416667  5.73567708333333 16.050390625  Z M 8.62630208333333 13.473828125  C 8.70876736111111 13.3897135416667  8.75 13.2901041666667  8.75 13.175  L 8.75 3.825  C 8.75 3.70989583333333  8.70876736111111 3.61028645833333  8.62630208333333 3.526171875  C 8.54383680555556 3.44205729166667  8.44618055555556 3.4  8.33333333333333 3.4  L 1.66666666666667 3.4  C 1.55381944444444 3.4  1.45616319444444 3.44205729166667  1.37369791666667 3.526171875  C 1.29123263888889 3.61028645833333  1.25 3.70989583333333  1.25 3.825  L 1.25 13.175  C 1.25 13.2901041666667  1.29123263888889 13.3897135416667  1.37369791666667 13.473828125  C 1.45616319444444 13.5579427083333  1.55381944444444 13.6  1.66666666666667 13.6  L 8.33333333333333 13.6  C 8.44618055555556 13.6  8.54383680555556 13.5579427083333  8.62630208333333 13.473828125  Z M 6.04166666666667 2.125  C 6.18055555555556 2.125  6.25 2.05416666666666  6.25 1.9125  C 6.25 1.77083333333333  6.18055555555556 1.7  6.04166666666667 1.7  L 3.95833333333333 1.7  C 3.81944444444444 1.7  3.75 1.77083333333333  3.75 1.9125  C 3.75 2.05416666666666  3.81944444444444 2.125  3.95833333333333 2.125  L 6.04166666666667 2.125  Z M 9.50520833333333 0.5046875  C 9.83506944444444 0.841145833333333  10 1.23958333333333  10 1.7  L 10 15.3  C 10 15.7604166666667  9.83506944444444 16.1588541666667  9.50520833333333 16.4953125  C 9.17534722222222 16.8317708333333  8.78472222222222 17  8.33333333333333 17  L 1.66666666666667 17  C 1.21527777777778 17  0.824652777777778 16.8317708333333  0.494791666666667 16.4953125  C 0.164930555555556 16.1588541666667  0 15.7604166666667  0 15.3  L 0 1.7  C 0 1.23958333333333  0.164930555555556 0.841145833333333  0.494791666666667 0.5046875  C 0.824652777777778 0.168229166666665  1.21527777777778 0  1.66666666666667 0  L 8.33333333333333 0  C 8.78472222222222 0  9.17534722222222 0.168229166666665  9.50520833333333 0.5046875  Z " fill-rule="nonzero" fill="#02a7f0" stroke="none" transform="matrix(1 0 0 1 48 245 )" />
  </g>
</svg>