<?xml version="1.0" encoding="utf-8"?>
<svg version="1.1" xmlns:xlink="http://www.w3.org/1999/xlink" width="12px" height="15px" xmlns="http://www.w3.org/2000/svg">
  <g transform="matrix(1 0 0 1 -46 -328 )">
    <path d="M 7.996875 11.640625  C 9.465625 10.4427083333333  10.2 9.27083333333333  10.2 8.125  L 10.2 1.875  L 6 1.875  L 6 12.978515625  C 6.74375 12.568359375  7.409375 12.1223958333333  7.996875 11.640625  Z M 11.821875 0.185546874999999  C 11.940625 0.309244791666665  12 0.455729166666665  12 0.624999999999999  L 12 8.125  C 12 8.68489583333333  11.8953125 9.23990885416666  11.6859375 9.7900390625  C 11.4765625 10.3401692708333  11.2171875 10.8284505208333  10.9078125 11.2548828125  C 10.5984375 11.6813151041667  10.2296875 12.0963541666667  9.8015625 12.5  C 9.3734375 12.9036458333333  8.978125 13.2389322916667  8.615625 13.505859375  C 8.253125 13.7727864583333  7.875 14.0250651041667  7.48125 14.2626953125  C 7.0875 14.5003255208333  6.8078125 14.6614583333333  6.6421875 14.74609375  C 6.4765625 14.8307291666667  6.34375 14.8958333333333  6.24375 14.94140625  C 6.16875 14.98046875  6.0875 15  6 15  C 5.9125 15  5.83125 14.98046875  5.75625 14.94140625  C 5.65625 14.8958333333333  5.5234375 14.8307291666667  5.3578125 14.74609375  C 5.1921875 14.6614583333333  4.9125 14.5003255208333  4.51875 14.2626953125  C 4.125 14.0250651041667  3.746875 13.7727864583333  3.384375 13.505859375  C 3.021875 13.2389322916667  2.6265625 12.9036458333333  2.1984375 12.5  C 1.7703125 12.0963541666667  1.4015625 11.6813151041667  1.0921875 11.2548828125  C 0.7828125 10.8284505208333  0.5234375 10.3401692708333  0.3140625 9.7900390625  C 0.1046875 9.23990885416666  0 8.68489583333333  0 8.125  L 0 0.624999999999999  C 0 0.455729166666665  0.059375 0.309244791666665  0.178125 0.185546874999999  C 0.296875 0.0618489583333326  0.4375 0  0.6 0  L 11.4 0  C 11.5625 0  11.703125 0.0618489583333326  11.821875 0.185546874999999  Z " fill-rule="nonzero" fill="#02a7f0" stroke="none" transform="matrix(1 0 0 1 46 328 )" />
  </g>
</svg>