<!-- Generator: Adobe Illustrator 23.0.0, SVG Export Plug-In  -->
<svg version="1.1" xmlns="http://www.w3.org/2000/svg" xmlns:xlink="http://www.w3.org/1999/xlink" x="0px" y="0px"
	 width="206.93px" height="113.11px" viewBox="0 0 206.93 113.11" style="enable-background:new 0 0 206.93 113.11;"
	 xml:space="preserve">
<style type="text/css">
	.st0{fill:#D7000F;}
</style>
<defs>
</defs>
<g>
	<path class="st0" d="M168.44,73.35c-1.95,1.95-5.12,1.95-7.08,0c-1.88-1.89-3.54-3.55-3.54-3.55l5.35-5.35l-6.73-6.74l-5.36,5.36
		l-5.36-5.36l-6.74,6.74l5.36,5.35c0,0-1.66,1.66-3.55,3.55c-1.95,1.95-5.13,1.95-7.08,0c-1.96-1.96-1.96-5.13,0-7.09
		c2.06-2.05,17.29-17.43,17.29-17.43s15.38,15.38,17.43,17.43C170.41,68.22,170.41,71.39,168.44,73.35L168.44,73.35z M133.72,18.07
		c-1.96-1.95-1.96-5.12,0-7.09c1.95-1.94,5.13-1.94,7.08,0c1.89,1.89,3.55,3.55,3.55,3.55l-5.36,5.35l6.74,6.73l5.36-5.35l5.36,5.35
		l6.73-6.73l-5.35-5.35c0,0,1.66-1.66,3.54-3.55c1.96-1.94,5.13-1.94,7.08,0c1.97,1.96,1.97,5.13,0,7.09
		c-2.05,2.06-17.43,17.44-17.43,17.44S135.78,20.13,133.72,18.07L133.72,18.07z M157.81,42.17c0,0,15.78-15.79,17.37-17.36
		c5.67-5.68,5.67-14.88,0-20.55c-5.68-5.68-14.89-5.68-20.55,0c-2.23,2.23-3.54,3.55-3.54,3.55s-1.31-1.32-3.54-3.55
		c-5.68-5.68-14.88-5.68-20.56,0c-5.68,5.67-5.68,14.87,0,20.55c1.57,1.57,17.36,17.36,17.36,17.36s-15.79,15.78-17.36,17.36
		c-5.68,5.67-5.68,14.87,0,20.55c5.68,5.67,14.88,5.67,20.56,0c2.23-2.24,3.54-3.55,3.54-3.55s1.31,1.31,3.54,3.55
		c5.67,5.67,14.87,5.67,20.55,0c5.67-5.68,5.67-14.88,0-20.55C173.6,57.95,157.81,42.17,157.81,42.17L157.81,42.17z M195.94,45.71
		c-1.95,1.95-5.13,1.95-7.09,0c-1.6-1.59-3.54-3.54-3.54-3.54s1.95-1.95,3.54-3.55c1.96-1.95,5.13-1.95,7.09,0
		c0.97,0.99,1.46,2.26,1.46,3.55C197.41,43.45,196.92,44.74,195.94,45.71L195.94,45.71z M202.68,31.89
		c-5.68-5.67-14.89-5.67-20.56,0c-1.63,1.63-3.54,3.55-3.54,3.55l-5.36-5.35l-6.73,6.73l5.36,5.36l-5.36,5.36l6.73,6.73l5.36-5.36
		c0,0,1.92,1.92,3.54,3.55c5.67,5.67,14.88,5.67,20.56,0c2.83-2.84,4.25-6.56,4.25-10.28C206.93,38.46,205.51,34.73,202.68,31.89
		L202.68,31.89z M113.17,45.71c-1.96,1.95-5.12,1.95-7.08,0c-0.98-0.97-1.47-2.26-1.47-3.54c0-1.29,0.48-2.56,1.47-3.55
		c1.96-1.95,5.13-1.95,7.08,0c1.6,1.59,3.54,3.55,3.54,3.55S114.76,44.12,113.17,45.71L113.17,45.71z M128.81,54.26l6.73-6.73
		l-5.36-5.36l5.36-5.36l-6.73-6.73l-5.36,5.35c0,0-1.92-1.92-3.54-3.55c-5.67-5.67-14.88-5.67-20.56,0
		c-2.84,2.84-4.26,6.57-4.26,10.29c0,3.72,1.42,7.44,4.26,10.28c5.67,5.67,14.88,5.67,20.56,0c1.63-1.64,3.54-3.55,3.54-3.55
		L128.81,54.26L128.81,54.26z"/>
	<polygon class="st0" points="38.3,88.93 38.3,72.78 42.08,72.78 42.08,88.93 38.3,88.93 	"/>
	<path class="st0" d="M40.17,71.13c-1.32,0-2.19-0.97-2.19-2.12c0-1.25,0.91-2.18,2.23-2.18c1.35,0,2.19,0.93,2.23,2.18
		c0,1.16-0.87,2.12-2.23,2.12H40.17L40.17,71.13z"/>
	<path class="st0" d="M40.17,94.92c-1.32,0-2.19-0.94-2.19-2.1c0-1.24,0.91-2.19,2.23-2.19c1.35,0,2.19,0.95,2.23,2.19
		c0,1.16-0.87,2.1-2.23,2.1H40.17L40.17,94.92z"/>
	<polygon class="st0" points="38.3,112.71 38.3,96.61 42.08,96.61 42.08,112.71 38.3,112.71 	"/>
	<g>
		<path d="M73.76,84.59c-0.89,0.94-2.06,1.39-3.49,1.39c-1.34,0-2.47-0.48-3.35-1.44c-0.87-0.96-1.29-2.2-1.29-3.73
			c0-1.41,0.43-2.6,1.31-3.58c0.9-0.97,2.01-1.43,3.35-1.43c1.43,0,2.57,0.47,3.47,1.43c0.88,0.96,1.32,2.2,1.32,3.67
			C75.08,82.39,74.65,83.61,73.76,84.59L73.76,84.59z M74.86,72.86v1.87c-1.54-1.53-3.31-2.29-5.28-2.29c-2.26,0-4.15,0.8-5.66,2.38
			c-1.51,1.6-2.26,3.62-2.26,6.02c0,2.41,0.75,4.47,2.26,6.08c1.53,1.6,3.44,2.39,5.78,2.39c1.85,0,3.56-0.71,5.16-2.14v1.67h3.92
			v-16H74.86L74.86,72.86z"/>
		<path d="M20.94,65.63H25v9.08c0,0,1.52-2.09,4.68-2.09c2.91,0,5.57,1.95,5.57,6.84v9.5h-3.7v-9.78c0-1.67-0.68-3.79-3.08-3.79
			c-2.28,0-3.46,1.7-3.47,3.79v9.78h-4.06V65.63L20.94,65.63z"/>
		<path d="M19.48,84.97c-0.91,1.27-2.03,2.3-3.42,3.09c-1.64,0.93-3.47,1.4-5.45,1.4c-2.94,0-5.44-1.05-7.51-3.1
			C1.04,84.31,0,81.82,0,78.87c0-3.16,1.16-5.8,3.51-7.88c2.05-1.84,4.41-2.76,7.08-2.76c1.93,0,3.73,0.48,5.44,1.44
			c1.39,0.79,2.55,1.79,3.44,3.05l-3.48,2.5c-0.25-0.6-0.61-1.1-1.01-1.59c-1.16-1.34-2.63-2.01-4.43-2.01
			c-1.75,0-3.22,0.67-4.39,2.03C5,75,4.42,76.73,4.42,78.84c0,2.19,0.58,3.94,1.73,5.29c1.14,1.36,2.6,2.02,4.38,2.02
			c1.77,0,3.24-0.67,4.42-2.04c0.42-0.5,0.78-1.04,1.04-1.64C15.99,82.46,18.58,84.32,19.48,84.97"/>
		<path d="M54.17,72.62c-3.86-0.05-5.12,2.09-5.12,2.09l-0.19-1.87h-3.49v16.09h4.04v-9.78c0.02-2.06,1.22-3.79,3.49-3.79
			c2.41,0,3.1,2.13,3.1,3.79v9.78h3.75v-9.48C59.75,74.54,57.08,72.64,54.17,72.62L54.17,72.62z"/>
		<path d="M97.56,96.48c-2.4-0.06-4.07,0.95-5.48,2.5c-0.95-1.73-2.53-2.45-4.19-2.5c-3.41-0.09-4.9,2.08-4.9,2.08l-0.13-1.94H79.2
			v16.1h4.07V103c0.01-2.08,1.1-3.77,3.21-3.77c2.2,0,2.83,2.11,2.83,3.79v9.7h3.7c0,0,0-9.46,0-9.5v0.01c0-2.71,1.27-4,3.14-4
			c2.2,0,2.82,2.11,2.82,3.79v9.7h3.7v-9.43C102.68,98.41,100.23,96.54,97.56,96.48L97.56,96.48z"/>
		<path d="M69.16,99.06c-1.3,0-2.37,0.53-3.22,1.57c-0.86,1.05-1.29,2.39-1.29,4.04c0,1.67,0.43,3.04,1.28,4.08
			c0.85,1.04,1.92,1.56,3.22,1.56c1.32,0,2.39-0.51,3.25-1.57c0.87-1.07,1.29-2.42,1.29-4.07c0-1.65-0.42-3-1.27-4.06
			C71.56,99.58,70.49,99.06,69.16,99.06L69.16,99.06z M68.87,96.24c1.5,0,2.93,0.4,4.25,1.14c1.33,0.76,2.37,1.79,3.11,3.07
			c0.75,1.3,1.13,2.7,1.13,4.18c0,1.51-0.38,2.93-1.14,4.25c-0.75,1.3-1.76,2.34-3.06,3.06c-1.3,0.76-2.72,1.11-4.27,1.11
			c-2.31,0-4.26-0.81-5.89-2.44c-1.63-1.62-2.43-3.6-2.43-5.94c0-2.5,0.92-4.58,2.74-6.24C64.94,96.97,66.77,96.24,68.87,96.24
			L68.87,96.24z"/>
		<path d="M29.68,96.39c-3.85-0.04-5.11,2.09-5.11,2.09l-0.2-1.87h-3.49v16.1h4.06v-9.75c0.01-2.09,1.2-3.79,3.49-3.79
			c2.38,0,3.07,2.1,3.07,3.79v9.75h3.75v-9.46C35.25,98.33,32.59,96.45,29.68,96.39L29.68,96.39z"/>
		<path d="M8.86,112.94c3.86,0.05,5.12-2.1,5.12-2.1l0.2,1.88h3.49v-16.1h-4.05v9.76c-0.02,2.07-1.19,3.79-3.48,3.79
			c-2.4,0-3.35-2.12-3.35-3.79v-9.76H2.73v9.47C2.73,110.98,5.95,112.89,8.86,112.94L8.86,112.94z"/>
		<path d="M60.27,109.55c-0.71,1.01-1.61,1.83-2.71,2.45c-1.3,0.74-2.75,1.1-4.34,1.1c-2.3,0-4.28-0.79-5.94-2.42
			c-1.64-1.65-2.46-3.63-2.46-5.97c0-2.49,0.93-4.57,2.79-6.24c1.62-1.45,3.49-2.17,5.6-2.17c1.53,0,2.96,0.37,4.31,1.13
			c1.11,0.61,2.02,1.42,2.73,2.41l-3.01,2.17c-0.19-0.45-0.44-0.83-0.74-1.19c-0.83-1-1.9-1.5-3.2-1.5c-1.27,0-2.32,0.52-3.18,1.5
			c-0.83,1.01-1.26,2.31-1.26,3.89c0,1.62,0.43,2.93,1.26,3.92c0.83,1.01,1.89,1.5,3.16,1.5c1.28,0,2.34-0.49,3.19-1.51
			c0.32-0.37,0.58-0.78,0.78-1.22L60.27,109.55L60.27,109.55z"/>
		<path d="M179.66,96.97c-1.51-2-3.06-3.09-3.06-3.09l-1.52,1.1l2.54,3.49L179.66,96.97L179.66,96.97z M192.19,100.02v1.31h-3.05
			v-1.31H192.19L192.19,100.02z M192.19,104.48h-3.05v-1.3h3.05V104.48L192.19,104.48z M186.5,101.33h-3.05v-1.31h3.05V101.33
			L186.5,101.33z M186.5,104.48h-3.05v-1.3h3.05V104.48L186.5,104.48z M187.41,97.35c-1.25-0.84-2.65-1.49-2.65-1.49l-1.04,1.33
			l1.05,0.91h-3.94v11.57h0.81c0.83,0,1.81-0.55,1.81-1.73v-1.6h3.05v3.32h0.81c1.03,0,1.74-0.5,1.82-1.74v-1.58h3.05v0.78
			c0,0.39-0.43,0.63-0.78,0.63h-1.21l0.55,1.92h1.89c1.29,0,2.32-1.03,2.32-2.32v-7.66c0-0.88-0.71-1.59-1.58-1.59h-3.07l4.03-2.43
			v-2.21h-13.67v1.92h9.99L187.41,97.35L187.41,97.35z M180.49,110.58c-0.69,0-1.25-0.56-1.25-1.26v-9.99h-4.36v1.93h1.45v8.83
			c0,1.5,1.32,2.43,2.34,2.43h16.58v-1.94H180.49L180.49,110.58z"/>
		<path d="M169.09,104.21h3.33v-1.92h-3.74v-2.97h3.74v-1.93H170l2.21-2.76l-2.1-1.51l-2.76,4.27h-1.98l1.61-1.16
			c-1.39-1.92-2.56-3.11-2.56-3.11l-1.54,0.91l1.98,3.35h-2.42v1.93h3.21v2.97h-3.21v1.92h2.85l-3.37,8.66h1.45
			c0.76,0,1.54-0.53,1.87-1.22l2.05-5.17l2.85,6.39h2.83L169.09,104.21L169.09,104.21z M158.46,102.74h-2.34v-2.37h2.34V102.74
			L158.46,102.74z M158.46,107.03l-2.34,0.66v-3.01h2.34L158.46,107.03L158.46,107.03z M162.52,105.89l-1.3,0.37v-10.8
			c0-1.19-0.72-1.93-1.63-1.93h-6.87v1.93h5.75v3h-2.34v-1.99h-2.61v11.95l-1.14,0.34v2.17l6.09-1.71v3.91h1.09
			c0.9,0,1.47-0.54,1.67-1.57v-3.12l1.3-0.36V105.89L162.52,105.89z"/>
		<path d="M123.18,104.37c0,0.7-0.56,1.25-1.25,1.25h-3.89v-7.87h5.14V104.37L123.18,104.37z M124.39,95.81h-6.35v-2.69h-3.29v2.69
			h-4.13v1.94h4.13v7.87h-5.14v-9.81h-3.29v11.74h8.42v5.57h0.54c1.84-0.07,2.68-0.88,2.75-2.28v-3.29h5.58
			c1.53,0,2.79-1.21,2.85-2.72v-7.03C126.41,96.68,125.5,95.81,124.39,95.81L124.39,95.81z"/>
		<path d="M145.24,106.79h-1.47l0.96-1.2c-1.3-1.19-2.29-1.81-2.29-1.81l-1.18,1.17l1.66,1.84h-2.24v-3.23h4.47v-1.93h-4.47v-2.4
			h4.47V97.3h-11.58v1.93h4.06v2.4h-4.06v1.93h4.06v3.23h-4.14v1.92h11.74V106.79L145.24,106.79z M147.19,93.46H133.5v1.92h12.75v14
			c0,0.69-0.57,1.24-1.26,1.24h-12.5V93.46h-3.04v19.1h17.09c1.52,0,2.76-1.22,2.76-2.75V95.53
			C149.28,94.38,148.35,93.46,147.19,93.46L147.19,93.46z"/>
	</g>
</g>
</svg>
