<?xml version="1.0" encoding="utf-8"?>
<svg version="1.1" xmlns:xlink="http://www.w3.org/1999/xlink" width="70px" height="70px" xmlns="http://www.w3.org/2000/svg">
  <defs>
    <linearGradient gradientUnits="userSpaceOnUse" x1="35" y1="0" x2="35" y2="91.12753774076" id="LinearGradient21">
      <stop id="Stop22" stop-color="#000000" offset="0" />
      <stop id="Stop23" stop-color="#ffff80" offset="1" />
    </linearGradient>
  </defs>
  <g transform="matrix(1 0 0 1 -152 -89 )">
    <path d="M 54.2317708333333 29.1666666666667  C 54.2317708333333 29.9565972222222  53.9431423611111 30.6401909722222  53.3658854166667 31.2174479166667  L 34.1341145833333 50.44921875  C 33.5568576388889 51.0264756944444  32.8732638888889 51.3151041666667  32.0833333333333 51.3151041666667  C 31.2934027777778 51.3151041666667  30.6098090277778 51.0264756944444  30.0325520833333 50.44921875  L 16.6341145833333 37.05078125  C 16.0568576388889 36.4735243055556  15.7682291666667 35.7899305555556  15.7682291666667 35  C 15.7682291666667 34.2100694444444  16.0568576388889 33.5264756944444  16.6341145833333 32.94921875  L 21.2825520833333 28.30078125  C 21.8598090277778 27.7235243055556  22.5434027777778 27.4348958333333  23.3333333333333 27.4348958333333  C 24.1232638888889 27.4348958333333  24.8068576388889 27.7235243055556  25.3841145833333 28.30078125  L 32.0833333333333 35  L 44.6158854166667 22.4674479166667  C 45.1931423611111 21.8901909722222  45.8767361111111 21.6015625  46.6666666666667 21.6015625  C 47.4565972222222 21.6015625  48.1401909722222 21.8901909722222  48.7174479166667 22.4674479166667  L 53.3658854166667 27.1158854166667  C 53.9431423611111 27.6931423611111  54.2317708333333 28.3767361111111  54.2317708333333 29.1666666666667  Z M 56.46484375 47.44140625  C 58.6827256944444 43.6436631944444  59.7916666666667 39.4965277777778  59.7916666666667 35  C 59.7916666666667 30.5034722222222  58.6827256944444 26.3563368055556  56.46484375 22.55859375  C 54.2469618055556 18.7608506944444  51.2391493055556 15.7530381944444  47.44140625 13.53515625  C 43.6436631944444 11.3172743055556  39.4965277777778 10.2083333333333  35 10.2083333333333  C 30.5034722222222 10.2083333333333  26.3563368055556 11.3172743055556  22.55859375 13.53515625  C 18.7608506944444 15.7530381944444  15.7530381944444 18.7608506944444  13.53515625 22.55859375  C 11.3172743055556 26.3563368055556  10.2083333333333 30.5034722222222  10.2083333333333 35  C 10.2083333333333 39.4965277777778  11.3172743055556 43.6436631944444  13.53515625 47.44140625  C 15.7530381944444 51.2391493055556  18.7608506944444 54.2469618055556  22.55859375 56.46484375  C 26.3563368055556 58.6827256944444  30.5034722222222 59.7916666666667  35 59.7916666666667  C 39.4965277777778 59.7916666666667  43.6436631944444 58.6827256944444  47.44140625 56.46484375  C 51.2391493055556 54.2469618055556  54.2469618055556 51.2391493055556  56.46484375 47.44140625  Z M 65.3059895833333 17.431640625  C 68.4353298611111 22.7940538194444  70 28.6501736111111  70 35  C 70 41.3498263888889  68.4353298611111 47.2059461805556  65.3059895833333 52.568359375  C 62.1766493055556 57.9307725694444  57.9307725694444 62.1766493055556  52.568359375 65.3059895833333  C 47.2059461805556 68.4353298611111  41.3498263888889 70  35 70  C 28.6501736111111 70  22.7940538194444 68.4353298611111  17.431640625 65.3059895833333  C 12.0692274305556 62.1766493055556  7.82335069444445 57.9307725694444  4.69401041666667 52.568359375  C 1.56467013888889 47.2059461805556  0 41.3498263888889  0 35  C 0 28.6501736111111  1.56467013888889 22.7940538194444  4.69401041666667 17.431640625  C 7.82335069444445 12.0692274305556  12.0692274305556 7.82335069444444  17.431640625 4.69401041666666  C 22.7940538194444 1.56467013888888  28.6501736111111 0  35 0  C 41.3498263888889 0  47.2059461805556 1.56467013888888  52.568359375 4.69401041666666  C 57.9307725694444 7.82335069444444  62.1766493055556 12.0692274305556  65.3059895833333 17.431640625  Z " fill-rule="nonzero" fill="url(#LinearGradient21)" stroke="none" transform="matrix(1 0 0 1 152 89 )" />
  </g>
</svg>